<svg id="Capa_1" enable-background="new 0 0 512 512" height="512" viewBox="0 0 1000 1000" width="512" xmlns="http://www.w3.org/2000/svg">
  <g>
    <path d="m395.336 79.731c-32.304-42.037-83.039-68.776-139.336-68.776-56.296 0-107.031 26.739-139.335 68.776-66.519 13.799-116.665 72.855-116.665 143.406v60.25c0 33.485 25.735 61.06 58.463 64.018-.307 20.023 4.959 39.919 15.395 57.32 13.339 22.244 34.27 38.96 58.937 47.07 14.862 4.885 30.037 6.347 44.677 4.84 16.068 26.593 45.256 44.411 78.529 44.411 33.272 0 62.459-17.817 78.527-44.409 3.636.374 7.304.575 10.993.575 11.163-.001 22.517-1.745 33.685-5.417 24.667-8.109 45.599-24.826 58.938-47.07 10.439-17.409 15.705-37.315 15.398-57.32 32.727-2.96 58.46-30.534 58.46-64.018v-60.25c-.002-70.551-50.147-129.606-116.666-143.406zm86.664 203.656c0 18.052-14.023 32.881-31.747 34.191-3.972-29.981-13.285-101.311-19.899-152.111-1.965-16.218-6.115-31.697-12.122-46.167 37.811 19.262 63.768 58.574 63.768 103.837zm-69.586 105.909c-9.633 16.065-24.754 28.14-42.577 33.999-37.516 12.335-77.797-5.437-94.607-40.007 3.548-2.087 7.507-4.598 11.476-7.471 18.654-13.504 28.113-28.016 28.113-43.135 0-29.971-21.988-47.864-58.818-47.864s-58.818 17.893-58.818 47.864c0 15.119 9.459 29.631 28.114 43.135 3.969 2.873 7.927 5.383 11.475 7.471-16.811 34.571-57.092 52.34-94.606 40.007-17.823-5.859-32.944-17.933-42.577-33.998-9.541-15.91-13.136-34.686-10.122-52.868.776-4.687 18.41-140.063 21.938-167.154l.018-.139c8.816-73.076 70.972-128.181 144.577-128.181s135.761 55.105 144.58 128.181l.018.139c3.526 27.09 21.16 162.467 21.938 167.153 3.013 18.182-.581 36.958-10.122 52.868zm-156.414 81.75c-19.091 0-36.182-8.72-47.505-22.383 18.974-8.005 35.623-21.34 47.505-38.816 11.881 17.477 28.52 30.826 47.492 38.831-11.323 13.655-28.408 22.368-47.492 22.368zm-28.818-138.364c0-5.346 0-17.864 28.818-17.864s28.818 12.518 28.818 17.864c0 6.091-11.549 18.016-28.779 27.112-13.574-7.321-28.857-19.337-28.857-27.112zm-197.182-49.295v-60.25c0-45.263 25.957-84.575 63.767-103.837-6.007 14.47-10.158 29.95-12.122 46.168-6.615 50.814-15.932 122.169-19.898 152.11-17.724-1.31-31.747-16.139-31.747-34.191z" />
    <path d="m175.273 190.273h30v54.773h-30z" />
    <path d="m306.727 190.273h30v54.773h-30z" />
    <path d="m132.001 339h30v30h-30z" />
    <path d="m350 339h30v30h-30z" />
  </g>
</svg>